<?xml version="1.0" encoding="utf-8"?>
<!-- Generator: Adobe Illustrator 28.0.0, SVG Export Plug-In . SVG Version: 6.00 Build 0)  -->
<svg version="1.1" id="Layer_1" xmlns="http://www.w3.org/2000/svg" xmlns:xlink="http://www.w3.org/1999/xlink" x="0px" y="0px"
	 viewBox="0 0 216 216" style="enable-background:new 0 0 216 216;" xml:space="preserve">
<style type="text/css">
	.st0{fill:#273E74;}
	.st1{fill:#249A40;}
</style>
<path class="st0" d="M205.81,145.04c1.8-0.91,3.07,0.94,2.23,2.9c-2.4,5.6-4.5,11.41-7.56,16.63c-3.72,6.34-8.09,12.34-12.57,18.19
	c-5.26,6.86-12.08,12.11-19.42,16.56c-12.01,7.28-24.96,11.69-38.99,13.55c-15.94,2.12-31.5,0.98-46.79-3.46
	c-21.89-6.36-39.76-18.85-53.62-36.94C8.38,145.43,0.89,114.96,7.13,81.56C9.96,66.4,17.23,52.92,26.84,40.71
	C39.21,25,54.87,13.36,71.82,3.21c0.82-0.49,1.71-0.9,2.61-1.24c0.36-0.14,0.83,0.03,2.5,0.14c-5.35,4.61-9.88,8.84-14.75,12.65
	c-8.63,6.73-15.9,14.8-21.93,23.76c-3.84,5.7-6.53,12.36-8.75,18.92c-2.3,6.79-3.8,13.91-4.96,21.01c-1,6.1-1.88,12.43-1.33,18.53
	c1.56,17.29,6.68,33.65,16.26,48.22c4.79,7.28,10.12,14.47,16.41,20.44c6.32,6,14.15,10.41,21.29,15.56
	c2.17,1.56,3.34-0.12,4.76-1.25c5-3.99,9.8-8.31,15.11-11.84c10.03-6.68,21.65-7.7,33.25-7.66c5.73,0.02,10.55-1.29,15.12-4.6
	c3.31-2.4,7.14-4.1,10.41-6.55c2.25-1.69,3.97-0.39,5.33,0.59c0.81,0.58,0.88,2.81,0.63,4.18c-1.31,7.36-5.06,12.49-12.45,15.33
	c-6.17,2.37-11.86,6.02-17.68,9.27c-1.14,0.64-1.88,2.01-2.81,3.04c1.07,0.61,2.1,1.36,3.23,1.81c4.4,1.77,8.82,0.61,13.15-0.25
	c13.16-2.63,30.62-9.95,40.82-18.67"/>
<path class="st1" d="M124.23,143.55c-1.39-4.37-2.75-8.74-4.27-13.07c-3.14-8.92-6.87-17.63-13.83-24.28
	c-3.75-3.58-8.3-6.34-12.54-9.4c-0.11-0.08-0.24-0.13-0.39-0.16c-0.78-0.16-1.43,0.76-0.98,1.42c0,0,0.01,0.01,0.01,0.01
	c2.51,3.51,4.85,7.16,7.64,10.43c9.22,10.86,13.24,23.72,14.78,37.56c0.04,0.32,0.01,0.65-0.03,0.98c-0.07,0.59-0.66,0.97-1.23,0.79
	c-0.41-0.13-0.81-0.27-1.14-0.51c-5.8-4.09-11.46-8.41-17.38-12.32c-5.58-3.69-11.73-6.56-17.07-10.55
	c-6.01-4.49-11.88-9.37-16.92-14.88c-7.27-7.95-10.04-18.16-11.25-28.6c-0.97-8.33-1.1-16.76-1.56-25.15
	c-0.02-0.29,0.03-0.58,0.1-0.88c0.14-0.59,0.78-0.92,1.33-0.67c0.27,0.12,0.52,0.27,0.67,0.48C61.88,71.29,78.59,81.2,96.45,89.5
	c11.06,5.14,18.67,13.74,25.17,23.68c3.39,5.19,3.51,5.1,7.64,0.52c8.42-9.33,18.71-15.67,30.67-19.43
	c3.53-1.11,7.03-2.36,10.43-3.81c6.01-2.56,10.25-6.6,14.07-12.34c0.48-0.72,1.83-2.44,2.36-2.82c0.4-0.29,1.05,2.64,1.08,3.14
	c0.79,13.42-0.7,26.36-10.09,36.86c-3.46,3.87-7.92,6.91-12.16,10c-8.41,6.11-16.98,12-25.49,17.97c-0.81,0.57-1.62,1.17-2.51,1.58
	c-0.43,0.2-0.9,0.35-1.37,0.47c-0.63,0.17-1.25-0.32-1.21-0.98c0.03-0.46,0.08-0.9,0.22-1.32c2.76-8.22,5.47-16.45,8.44-24.6
	c0.85-2.32,2.52-4.34,3.76-6.54c0.05-0.1,0.1-0.2,0.14-0.3c0.27-0.72-0.44-1.47-1.17-1.22c-0.1,0.03-0.2,0.08-0.29,0.13
	c-7.33,4.06-11.5,10.83-14.77,18.1c-1.78,3.96-2.49,8.4-3.73,12.62c-0.23,0.79-0.48,1.58-0.75,2.36
	C125.54,143.56,125.59,143.56,124.23,143.55z"/>
<path class="st1" d="M208.56,102.82c-0.24-1.77-0.46-3.55-0.71-5.32c-3.43-24.45-12.91-46.05-31.29-62.9
	c-23.92-21.92-51.88-28.47-83.29-20.25c-11.6,3.03-22.07,8.37-31.82,15.22c-3.46,2.43-6.89,4.92-10.36,7.34
	c-0.51,0.36-1.19,0.47-1.8,0.7c0.02-0.78-0.05-1.58,0.1-2.33c0.07-0.36,0.55-0.63,0.84-0.95C65.23,18,83.16,6.72,105.51,4.13
	c32.19-3.74,60.13,5.39,82.16,29.72C204.67,52.62,212.11,76.72,208.56,102.82z"/>
<path class="st1" d="M131.79,84.87c-11.98,0.08-20.88-8.49-20.87-20.1c0.01-11.36,8.86-20.09,20.44-20.17
	c11.78-0.09,20.92,8.76,20.86,20.16C152.15,76.22,143.44,84.79,131.79,84.87z"/>
<path class="st0" d="M168.32,173.8c0,0,6.01-11.15,12.04-21.69c4.83-8.45,8.9-18.11,12.36-15.77c3.36,2.27-5.07,17.5-11.04,24.67
	C173.83,170.42,168.32,173.8,168.32,173.8z"/>
<path class="st0" d="M173.08,173.07c0,0,11.22-12.85,17.3-23.49c4.88-8.53,9.43-16.21,12.92-13.85c3.39,2.29-2.32,11.36-8.09,18.82
	C184.92,167.86,173.08,173.07,173.08,173.07z"/>
</svg>
